<svg xmlns="http://www.w3.org/2000/svg" width="1200" height="760" viewBox="0 0 1200 760">
  <defs>
    <linearGradient id="g" x1="0" x2="1" y1="0" y2="1"><stop stop-color="#f4efe6"/><stop offset="1" stop-color="#ffffff"/></linearGradient>
    <filter id="s" x="-20%" y="-20%" width="140%" height="140%"><feDropShadow dx="0" dy="24" stdDeviation="22" flood-color="#000" flood-opacity=".14"/></filter>
  </defs>
  <rect width="1200" height="760" fill="url(#g)"/>
  <circle cx="990" cy="130" r="210" fill="none" stroke="#222222" stroke-opacity=".11" stroke-width="32"/>
  <path d="M110 575 C320 520 460 650 720 560 S1030 500 1110 610" fill="none" stroke="#222222" stroke-opacity=".18" stroke-width="4"/>
  <g filter="url(#s)">
    <rect x="115" y="108" width="820" height="460" rx="34" fill="#fff"/>
    <rect x="160" y="160" width="730" height="64" rx="12" fill="#f3f0ea"/>
    <rect x="160" y="260" width="430" height="34" rx="8" fill="#222222" opacity=".92"/>
    <rect x="160" y="315" width="620" height="18" rx="8" fill="#d8d1c8"/>
    <rect x="160" y="350" width="520" height="18" rx="8" fill="#e4ded5"/>
    <rect x="160" y="415" width="190" height="54" rx="27" fill="#222222"/>
    <rect x="390" y="415" width="170" height="54" rx="27" fill="#f6f3ed" stroke="#ddd4c8"/>
    <rect x="650" y="260" width="190" height="190" rx="24" fill="#f1eee7"/>
    <path d="M690 410 c40-20 34-100 79-114 c42-13 60 33 42 80" fill="none" stroke="#222222" stroke-width="12" stroke-linecap="round" opacity=".75"/>
  </g>
  <g>
    <text x="105" y="655" fill="#222222" font-family="serif" font-size="42" letter-spacing="3">青汁LP</text>
    <text x="105" y="702" fill="#7c746a" font-family="sans-serif" font-size="24">LP / screenshot placeholder</text>
  </g>
</svg>